<?xml version="1.0" standalone="no"?>
<!DOCTYPE svg PUBLIC "-//W3C//DTD SVG 20010904//EN"
 "http://www.w3.org/TR/2001/REC-SVG-20010904/DTD/svg10.dtd">
<svg version="1.0" xmlns="http://www.w3.org/2000/svg"
 width="960.000000pt" height="720.000000pt" viewBox="0 0 960.000000 720.000000"
 preserveAspectRatio="xMidYMid meet">

<g transform="translate(0.000000,720.000000) scale(0.100000,-0.100000)"
fill="#000000" stroke="none">
<path d="M4589 6750 c-192 -22 -394 -87 -624 -200 -741 -364 -1373 -1143
-1586 -1954 -51 -195 -58 -350 -21 -447 17 -43 69 -96 115 -115 41 -18 122
-19 2397 -16 l2355 4 53 25 c139 66 164 212 87 513 -41 164 -148 402 -247 549
-168 252 -424 494 -683 647 -180 105 -426 206 -625 255 -136 34 -275 60 -372
69 -167 17 -216 29 -252 66 -14 13 -16 47 -16 217 0 191 -1 205 -24 252 -29
61 -68 100 -122 119 -51 18 -329 28 -435 16z m358 -224 l28 -24 1 -174 c0
-184 8 -233 49 -304 47 -80 118 -116 255 -128 423 -38 805 -159 1102 -348 145
-91 239 -168 368 -297 162 -163 244 -273 330 -446 94 -190 123 -278 124 -380
1 -129 -45 -192 -157 -214 -34 -6 -814 -9 -2192 -8 -2038 2 -2142 3 -2180 20
-132 60 -156 182 -81 409 127 382 301 711 522 988 93 116 330 351 439 435 289
222 647 408 890 464 121 27 126 28 312 30 158 1 163 0 190 -23z"/>
<path d="M4595 6490 c-74 -8 -231 -45 -255 -60 -31 -19 2 -21 67 -5 191 48
426 70 474 45 16 -9 19 -22 19 -88 l0 -77 -83 -29 c-232 -82 -500 -258 -707
-466 -72 -72 -191 -206 -219 -247 -12 -18 -27 -33 -33 -33 -31 0 -329 183
-408 250 l-35 30 60 58 c33 31 82 77 109 100 27 23 46 45 43 49 -19 18 -319
-263 -454 -427 -134 -163 -295 -415 -375 -588 -59 -128 -158 -377 -180 -456
-37 -130 -12 -225 70 -264 30 -13 66 -17 189 -17 94 0 156 4 163 11 7 7 -38
10 -152 10 -221 -1 -251 14 -265 134 -4 38 4 75 50 211 118 355 258 615 474
886 95 120 234 273 246 273 5 0 27 -15 50 -34 59 -48 228 -157 320 -206 42
-23 77 -44 77 -47 0 -3 -31 -52 -70 -109 -38 -56 -70 -111 -70 -121 0 -10 -17
-37 -38 -60 -51 -57 -139 -223 -118 -223 9 0 28 25 46 59 49 99 232 389 276
440 2 2 52 -17 111 -42 157 -67 163 -69 163 -54 0 7 -55 35 -122 63 -67 28
-123 55 -125 61 -5 14 215 260 303 339 160 143 310 247 474 329 78 39 210 95
224 95 9 0 15 -214 6 -225 -10 -12 -2 -55 10 -55 5 0 10 8 12 17 2 13 11 5 30
-27 31 -54 63 -84 78 -75 6 4 -3 22 -25 47 -64 76 -78 130 -82 328 -4 219 2
211 -152 209 -58 -1 -137 -5 -176 -9z"/>
<path d="M4230 6356 c-173 -77 -316 -154 -436 -234 -66 -44 -127 -89 -137 -99
-16 -18 -16 -21 -2 -33 13 -11 23 -6 65 29 49 41 52 42 86 31 20 -7 54 -9 75
-6 22 4 47 2 57 -3 31 -16 117 10 156 48 22 21 40 31 51 28 9 -4 24 2 35 13
11 11 29 20 40 20 10 0 29 11 42 24 15 15 56 34 114 51 l90 27 -2 37 c-3 65
-18 81 -74 81 -31 0 -52 5 -57 14 -6 11 -26 6 -103 -28z"/>
<path d="M4560 6220 c0 -22 1 -23 24 -14 13 5 13 8 1 20 -19 19 -25 18 -25 -6z"/>
<path d="M4500 6208 l-25 -11 25 -6 24 -7 -23 -16 c-13 -9 -22 -21 -20 -27 2
-5 19 2 37 17 23 19 31 33 26 45 -7 19 -10 20 -44 5z"/>
<path d="M4860 5970 c-17 -10 -16 -12 27 -34 41 -21 41 -21 35 9 -2 14 -8 25
-12 25 -5 0 -14 2 -22 5 -7 3 -20 1 -28 -5z"/>
<path d="M3842 5898 c-7 -7 -12 -17 -12 -24 0 -6 -7 -17 -15 -24 -24 -20 -2
-49 34 -45 34 4 68 24 76 43 5 13 -42 61 -60 62 -6 0 -16 -5 -23 -12z"/>
<path d="M4985 5860 c-16 -17 -35 -28 -41 -26 -6 2 -25 -9 -40 -26 -41 -43
-103 -81 -125 -75 -25 7 -57 -29 -41 -45 21 -21 13 -30 -20 -23 -26 6 -30 5
-25 -9 5 -13 0 -16 -24 -16 -26 0 -33 6 -49 43 -26 55 -25 69 3 67 53 -5 65 0
75 30 l11 29 -59 12 c-44 8 -60 16 -63 31 -4 14 -11 18 -25 14 -11 -4 -49 -13
-86 -20 -62 -14 -72 -19 -150 -94 -67 -63 -99 -85 -157 -108 -65 -27 -76 -36
-101 -77 -15 -26 -25 -53 -22 -61 9 -22 64 -26 85 -5 27 27 41 4 28 -45 -12
-42 -7 -51 32 -61 22 -6 30 -1 47 27 12 19 30 42 41 52 11 10 17 24 14 32 -3
8 -2 30 1 48 5 28 17 41 57 65 27 17 54 42 59 55 12 32 41 42 58 19 12 -16 7
-23 -38 -63 -56 -50 -77 -97 -55 -126 11 -16 18 -17 65 -6 39 9 57 9 73 0 21
-11 21 -11 2 -18 -11 -4 -44 -11 -73 -15 -51 -7 -53 -8 -47 -32 3 -14 3 -34
-1 -45 -5 -18 -7 -18 -24 -3 -17 16 -19 15 -30 -5 -7 -12 -8 -26 -3 -30 16
-16 357 -104 431 -112 33 -3 34 -2 115 137 46 77 128 211 184 298 56 86 96
157 89 157 -7 0 -40 13 -72 30 -32 16 -62 30 -65 30 -3 0 -18 -14 -34 -30z
m-400 -340 c15 -29 15 -30 -7 -30 -13 0 -32 7 -42 15 -16 12 -17 17 -6 30 19
23 38 18 55 -15z"/>
<path d="M5178 5788 c-68 -92 -338 -538 -338 -560 0 -24 455 -83 948 -122 l72
-6 0 299 0 299 -32 11 c-109 34 -269 66 -482 96 -143 20 -140 20 -168 -17z
m632 -542 c0 -2 -16 -14 -36 -25 -30 -18 -35 -26 -30 -46 8 -31 -7 -40 -28
-16 -24 26 -8 62 35 77 35 13 59 17 59 10z"/>
<path d="M5890 5391 l0 -288 43 -7 c23 -3 229 -9 457 -13 l414 -6 -32 41 c-52
65 -222 222 -308 284 -124 89 -278 173 -416 228 -70 27 -134 50 -143 50 -13 0
-15 -35 -15 -289z"/>
<path d="M3662 5461 c-37 -67 -38 -71 -17 -71 18 0 18 -2 4 -33 -6 -14 -29
-34 -51 -47 -32 -18 -37 -24 -27 -37 10 -12 10 -16 -2 -24 -8 -5 -17 -9 -21
-9 -5 0 -8 -4 -8 -10 0 -5 24 -10 54 -10 72 0 85 19 90 135 3 66 8 91 22 107
14 16 16 22 6 25 -10 4 -10 8 -1 19 9 11 8 14 -2 14 -8 0 -29 -26 -47 -59z"/>
<path d="M3568 5414 c-4 -3 -14 -7 -25 -8 -10 -2 -20 -11 -22 -22 -2 -10 -12
-25 -22 -32 -28 -20 -23 -32 14 -32 27 0 37 7 65 50 28 43 30 50 14 50 -10 0
-21 -3 -24 -6z"/>
<path d="M4216 5372 c-13 -13 -4 -20 38 -31 53 -13 66 -14 66 -3 0 10 -97 42
-104 34z"/>
<path d="M4015 5328 c-16 -35 -27 -44 -53 -49 -19 -4 -46 -18 -60 -32 -15 -14
-38 -28 -52 -32 -14 -4 -35 -16 -46 -27 -15 -13 -29 -17 -47 -13 -20 5 -26 2
-32 -14 -3 -12 -15 -21 -26 -21 -17 0 -19 -5 -13 -53 6 -54 -2 -82 -41 -131
-14 -19 -16 -19 -51 -2 -20 9 -38 15 -41 13 -9 -9 -113 -243 -113 -254 0 -11
57 -33 85 -33 13 0 73 62 104 107 12 17 36 36 54 42 22 8 36 21 44 40 10 29
12 29 47 19 29 -9 43 -8 76 7 39 17 41 17 60 0 11 -10 20 -31 20 -46 0 -20 14
-41 56 -81 55 -52 56 -54 51 -100 -2 -27 -1 -48 2 -48 18 0 29 26 24 51 -6 30
5 37 25 17 6 -6 15 -9 19 -5 3 4 -9 23 -27 42 -19 19 -30 35 -24 35 5 0 -3 10
-17 23 -56 48 -76 157 -29 157 11 0 20 -7 20 -15 0 -8 9 -15 20 -15 14 0 21
-9 26 -37 4 -27 18 -49 46 -75 33 -30 39 -42 34 -61 -4 -16 3 -45 18 -80 19
-43 32 -57 57 -66 47 -16 55 -14 32 12 -16 17 -18 25 -10 34 30 31 38 44 31
55 -4 6 0 16 9 23 19 14 67 8 67 -8 0 -7 4 -7 12 1 7 7 23 12 36 12 24 0 24 1
8 25 -15 23 -14 27 19 82 19 32 35 64 35 71 0 20 38 52 63 52 13 0 32 -7 43
-15 16 -13 17 -16 4 -26 -11 -8 -12 -12 -2 -16 6 -2 12 -11 12 -19 0 -19 13
-18 44 7 14 11 26 16 26 10 0 -6 -4 -11 -8 -11 -5 0 -14 -18 -21 -41 -7 -23
-15 -47 -18 -55 -3 -8 1 -14 9 -14 8 0 21 21 30 48 8 26 25 71 37 100 14 37
17 52 9 50 -7 -3 -19 -17 -26 -31 -15 -31 -27 -34 -36 -11 -10 26 -7 34 14 34
16 0 32 25 76 116 31 64 54 117 52 119 -1 1 -46 12 -98 24 -52 12 -155 38
-229 57 -95 26 -135 33 -140 25 -11 -17 -67 -31 -79 -19 -6 6 -26 1 -55 -13
-45 -22 -47 -22 -86 -4 -34 15 -41 23 -41 46 0 15 5 29 12 31 14 5 2 28 -15
28 -7 0 -21 -19 -32 -42z"/>
<path d="M4137 5363 c-10 -10 -8 -43 2 -43 5 0 12 7 15 16 3 9 13 14 21 10 8
-3 17 -1 20 3 2 5 -5 11 -18 15 -28 7 -32 7 -40 -1z"/>
<path d="M4770 5094 c-25 -54 -47 -102 -49 -107 -2 -5 6 -6 18 -2 17 5 21 2
21 -18 0 -13 -9 -36 -21 -51 -11 -14 -16 -26 -11 -26 19 0 100 -81 104 -104
11 -58 -76 -85 -159 -51 -20 8 -37 14 -39 12 -4 -4 -54 -189 -54 -199 0 -4 10
-10 23 -13 70 -22 86 -86 37 -153 -24 -33 -36 -41 -67 -44 -27 -2 -39 -8 -41
-20 -3 -17 15 -18 267 -18 149 0 274 0 279 1 4 0 6 7 4 16 -4 17 25 42 49 43
8 0 30 -16 49 -35 l34 -35 -52 0 c-29 0 -52 -4 -52 -10 0 -6 27 -10 60 -10 49
0 58 3 54 15 -5 13 34 15 315 15 l321 0 -2 383 -3 382 -40 3 c-359 23 -710 66
-971 118 -29 6 -30 4 -74 -92z m610 -22 c0 -10 7 -27 15 -40 14 -19 14 -25 1
-51 -14 -26 -34 -41 -57 -41 -22 0 -30 53 -13 94 21 53 54 77 54 38z m-215
-53 c41 -36 44 -49 11 -49 -37 0 -56 -10 -56 -31 0 -11 -7 -19 -17 -19 -14 0
-12 -4 7 -25 13 -14 32 -25 43 -25 10 0 21 -9 24 -20 3 -11 10 -17 15 -14 14
9 58 -16 58 -33 0 -7 -9 -13 -20 -13 -25 0 -25 -11 0 -43 12 -14 27 -47 35
-72 l14 -47 -37 -15 c-31 -13 -45 -14 -82 -4 -24 7 -50 17 -57 23 -15 12 -18
94 -3 103 19 12 10 25 -45 61 -60 40 -80 78 -73 144 2 26 7 35 21 34 9 -1 17
4 17 11 0 17 48 52 80 58 14 2 26 5 27 6 1 0 18 -13 38 -30z"/>
<path d="M5890 4678 l0 -378 267 0 266 0 -6 95 -6 95 27 1 c15 1 30 1 34 0 18
-2 29 41 18 72 -9 27 -8 34 7 44 26 20 37 16 97 -34 48 -41 59 -56 72 -103 9
-30 17 -61 20 -68 2 -8 12 -12 21 -10 14 3 18 14 18 51 0 44 2 47 26 47 27 0
35 -14 106 -187 4 -10 -43 -13 -216 -13 -141 0 -221 -4 -221 -10 0 -6 112 -10
316 -10 365 0 371 1 400 76 36 95 -17 281 -148 517 -27 48 -53 87 -59 87 -13
0 -11 -17 2 -26 19 -11 124 -241 154 -334 15 -47 30 -119 32 -162 5 -76 5 -78
-25 -108 -30 -30 -34 -31 -104 -28 l-72 3 -15 59 c-11 42 -13 60 -5 63 35 12
42 30 48 133 l6 106 -60 38 c-66 42 -68 47 -49 138 7 32 22 64 37 80 29 31 25
44 -26 104 l-27 31 -467 5 -468 5 0 -379z"/>
<path d="M3434 4973 c-44 -29 -102 -121 -96 -154 2 -10 -2 -28 -9 -40 -9 -18
-8 -24 5 -31 9 -5 16 -18 16 -28 0 -15 7 -20 25 -20 14 0 25 6 25 13 1 6 27
71 59 142 32 72 57 133 54 138 -8 14 -38 6 -79 -20z"/>
<path d="M3855 4800 c-3 -5 -1 -10 4 -10 6 0 11 5 11 10 0 6 -2 10 -4 10 -3 0
-8 -4 -11 -10z"/>
<path d="M3836 4738 c-11 -42 -7 -55 9 -34 16 22 20 56 6 56 -5 0 -11 -10 -15
-22z"/>
<path d="M4545 4730 c-16 -11 -40 -20 -52 -20 -13 0 -23 -4 -23 -10 0 -5 -17
-10 -38 -10 -40 0 -88 -27 -64 -36 6 -3 12 -17 12 -30 0 -13 -6 -24 -12 -24
-7 0 -5 -5 5 -11 9 -5 17 -20 17 -32 0 -34 66 -52 111 -30 19 9 35 17 37 18 1
1 15 47 31 103 30 108 28 116 -24 82z"/>
<path d="M3390 4674 c-13 -33 -13 -34 4 -28 7 3 18 16 24 30 10 20 9 24 -3 24
-9 0 -20 -12 -25 -26z"/>
<path d="M3395 4603 c-18 -43 -95 -282 -95 -294 0 -5 258 -8 597 -7 492 3 597
5 601 17 3 10 -6 12 -45 6 -35 -4 -72 -1 -129 14 -126 32 -185 37 -199 18 -19
-27 -44 -24 -160 17 -133 48 -172 84 -124 114 16 10 20 20 16 41 -3 16 -1 33
5 39 7 7 10 13 7 16 -9 8 -301 27 -333 21 -24 -5 -48 -1 -80 14 l-46 20 -15
-36z"/>
<path d="M3324 4598 c-16 -19 -40 -56 -52 -83 -20 -41 -35 -57 -85 -86 -38
-22 -75 -54 -95 -83 l-34 -46 101 0 c73 0 103 4 105 13 2 6 25 79 51 160 26
82 45 150 42 153 -2 3 -17 -10 -33 -28z"/>
<path d="M3930 4618 c0 -7 16 -23 35 -36 l35 -22 0 35 c0 33 -2 35 -35 35 -21
0 -35 -5 -35 -12z"/>
<path d="M4190 4561 c0 -16 41 -40 58 -34 12 5 11 9 -8 25 -24 19 -50 24 -50
9z"/>
<path d="M4553 4532 c-13 -8 -49 -179 -39 -189 3 -3 9 -4 12 -1 6 7 45 190 41
194 -1 2 -8 0 -14 -4z"/>
<path d="M4265 4460 c3 -5 23 -10 43 -10 28 0 33 3 22 10 -20 13 -73 13 -65 0z"/>
<path d="M1315 3802 c-48 -3 -54 -7 -127 -80 l-78 -77 0 78 0 77 -50 0 -51 0
1 -215 1 -215 50 0 49 0 0 75 c0 41 4 75 9 75 10 0 110 -117 118 -137 4 -9 27
-13 70 -13 l64 0 -20 28 c-11 15 -56 68 -101 117 l-81 90 103 97 c56 53 100
98 98 100 -3 2 -27 2 -55 0z"/>
<path d="M1535 3799 c-83 -24 -145 -116 -145 -215 1 -138 91 -224 235 -224 79
0 122 17 175 68 122 119 79 323 -79 371 -44 13 -142 13 -186 0z m165 -67 c98
-52 91 -240 -10 -294 -70 -38 -167 -3 -190 68 -17 52 -9 153 15 186 42 57 121
73 185 40z"/>
<path d="M3457 3803 c-4 -3 -7 -105 -7 -225 l0 -218 45 0 44 0 3 103 c3 99 4
102 26 102 19 0 27 -9 41 -53 35 -103 103 -147 227 -147 72 0 86 3 130 30 29
19 60 49 78 78 24 40 29 58 30 116 0 92 -35 154 -109 191 -68 34 -189 35 -251
3 -50 -27 -88 -70 -104 -118 -10 -29 -16 -35 -41 -35 l-29 0 0 88 0 89 -38 1
c-22 1 -42 -1 -45 -5z m443 -71 c51 -25 72 -72 68 -153 -4 -82 -37 -132 -97
-150 -99 -30 -181 38 -181 150 0 58 13 97 43 130 41 44 107 53 167 23z"/>
<path d="M6734 3804 c-7 -3 -63 -64 -125 -136 l-114 -130 -3 131 -3 131 -44 0
-45 0 0 -215 0 -215 23 0 c18 0 52 33 137 130 62 72 117 130 121 130 5 0 9
-60 9 -134 l0 -134 33 3 c17 2 38 4 45 4 9 1 12 52 12 221 0 203 -1 220 -17
219 -10 0 -23 -3 -29 -5z"/>
<path d="M7362 3801 c-5 -3 -22 -89 -36 -191 -15 -102 -29 -197 -32 -212 -5
-27 -4 -28 39 -28 l44 0 7 102 c4 56 11 109 16 117 6 12 23 -13 65 -101 33
-68 63 -118 71 -118 8 0 36 44 63 98 27 53 56 106 64 116 14 19 15 18 20 -20
4 -21 9 -73 13 -116 l6 -76 49 -4 c38 -2 49 0 49 12 0 17 -40 375 -46 406 -2
14 -10 20 -26 19 -19 -1 -38 -28 -98 -138 -41 -75 -77 -137 -80 -137 -6 0
-120 211 -133 246 -8 23 -37 36 -55 25z"/>
<path d="M8253 3799 c-11 -4 -68 -62 -125 -127 -56 -66 -109 -121 -115 -121
-10 -1 -13 30 -13 124 l0 125 -45 0 -45 0 0 -213 c0 -118 2 -216 5 -219 18
-18 62 18 160 133 61 70 114 127 119 126 4 -2 8 -60 7 -130 l-2 -127 50 0 51
0 0 214 c0 226 -1 232 -47 215z"/>
<path d="M1996 3788 c-6 -19 -57 -390 -56 -408 0 -12 9 -15 39 -12 l39 4 6 61
c4 34 9 86 13 116 l6 54 18 -24 c10 -13 37 -66 61 -116 27 -59 49 -93 59 -93
9 0 36 42 73 115 32 63 61 113 66 110 4 -2 10 -46 14 -97 10 -131 8 -128 67
-128 43 0 50 2 45 18 -2 9 -15 106 -27 215 l-23 197 -26 0 c-22 -1 -33 -16
-90 -122 -36 -66 -70 -127 -76 -136 -9 -12 -22 6 -70 94 -33 60 -66 121 -74
137 -14 28 -57 38 -64 15z"/>
<path d="M2560 3585 l0 -215 45 0 45 0 0 180 0 180 100 0 100 0 0 -179 0 -179
46 -4 c25 -2 47 -2 49 0 2 2 4 100 5 218 l1 214 -196 0 -195 0 0 -215z"/>
<path d="M3060 3585 l0 -215 79 0 c124 0 192 32 212 100 26 88 -20 142 -129
150 l-67 5 0 88 0 87 -47 0 -48 0 0 -215z m188 -37 c17 -17 15 -68 -5 -90 -10
-11 -30 -18 -55 -18 l-38 0 0 60 0 60 43 0 c24 0 48 -5 55 -12z"/>
<path d="M4120 3765 l0 -35 65 0 65 0 0 -182 0 -183 45 -2 45 -2 0 184 0 185
60 0 60 0 0 35 0 35 -170 0 -170 0 0 -35z"/>
<path d="M4560 3585 l0 -215 125 0 125 0 0 38 0 39 -81 -5 -80 -5 3 64 3 64
68 -2 c45 -1 67 3 67 10 0 7 3 22 6 35 6 21 4 22 -70 22 l-76 0 0 51 0 52 80
-5 80 -5 0 39 0 38 -125 0 -125 0 0 -215z"/>
<path d="M4920 3586 l0 -216 50 0 50 0 0 89 0 89 54 4 c60 5 118 37 135 76 21
45 13 99 -18 134 l-29 33 -121 3 -121 4 0 -216z m185 140 c11 -8 18 -26 18
-46 0 -42 -34 -72 -77 -68 -29 3 -31 5 -34 52 -2 27 -1 55 2 62 7 18 66 18 91
0z"/>
<path d="M5310 3585 l0 -215 45 0 44 0 3 98 3 97 98 3 97 3 0 -101 0 -100 50
0 50 0 0 215 0 215 -50 0 -50 0 0 -79 c0 -91 0 -91 -93 -91 -107 0 -107 0
-107 91 l0 79 -45 0 -45 0 0 -215z"/>
<path d="M5820 3585 l0 -215 90 0 c110 0 170 23 194 75 20 41 20 66 1 111 -17
41 -52 58 -137 69 l-58 6 0 85 0 84 -45 0 -45 0 0 -215z m184 -41 c21 -21 20
-67 -2 -87 -10 -9 -33 -18 -52 -19 l-35 -3 -3 63 -3 62 40 0 c23 0 46 -7 55
-16z"/>
<path d="M6170 3585 l1 -215 50 0 49 0 0 215 0 215 -50 0 -51 0 1 -215z"/>
<path d="M6550 3738 c0 -32 1 -58 3 -58 2 0 24 24 50 54 l47 54 -50 4 -50 3 0
-57z"/>
<path d="M8430 3586 l0 -214 45 -4 44 -3 3 90 3 90 60 7 c78 10 126 47 139
107 7 32 5 50 -7 75 -24 51 -67 66 -186 66 l-101 0 0 -214z m181 144 c19 -11
27 -63 11 -86 -11 -18 -48 -34 -76 -34 -25 0 -26 2 -26 58 0 32 3 62 7 65 10
11 62 8 84 -3z"/>
<path d="M2502 3171 c-61 -21 -104 -58 -135 -116 -45 -83 -21 -321 54 -540
160 -464 502 -855 969 -1108 296 -160 678 -270 1024 -296 173 -13 166 -1 166
-260 1 -222 6 -253 54 -316 15 -19 46 -45 69 -58 40 -21 52 -22 282 -22 239 0
240 0 370 34 446 115 907 402 1255 783 134 146 152 168 222 258 242 315 434
694 533 1057 94 340 57 537 -109 588 -44 13 -328 15 -2375 15 -2228 -1 -2328
-1 -2379 -19z m4573 -200 c132 -60 146 -168 56 -439 -166 -499 -380 -843 -753
-1208 -62 -61 -140 -133 -173 -161 -216 -182 -552 -372 -800 -453 -156 -51
-277 -70 -438 -70 -135 0 -176 10 -197 49 -6 12 -10 96 -10 203 0 101 -5 201
-11 223 -15 54 -108 146 -167 163 -23 7 -102 20 -175 28 -833 91 -1469 491
-1762 1108 -103 215 -135 360 -101 449 19 51 71 104 112 117 16 4 1003 9 2204
9 2089 1 2177 0 2215 -18z"/>
<path d="M2805 2920 c-143 -6 -165 -13 -190 -66 -21 -45 -19 -89 10 -190 136
-475 445 -827 929 -1060 143 -69 398 -159 422 -150 9 3 70 -5 137 -19 139 -28
408 -65 420 -58 18 11 233 352 336 535 17 31 28 59 23 62 -40 24 -798 116
-964 116 l-48 0 0 -120 c0 -107 -8 -145 -23 -107 -3 6 -6 -71 -6 -172 l-1
-183 -31 6 c-54 10 -209 75 -319 133 -131 69 -259 157 -375 260 -85 76 -195
193 -195 209 0 4 182 5 405 2 377 -5 486 0 348 16 -32 3 -218 6 -414 7 -410 0
-359 -13 -441 114 -106 163 -208 423 -208 528 1 93 36 116 177 118 98 1 167
10 148 19 -5 3 -68 3 -140 0z m1903 -974 c2 -3 -4 -18 -14 -33 -11 -15 -19
-32 -19 -38 -1 -25 -16 -35 -36 -25 -11 6 -23 9 -28 6 -14 -9 -34 41 -27 68 4
15 15 27 29 29 25 6 87 1 95 -7z m-144 -129 c7 -48 12 -58 31 -63 31 -8 52
-62 28 -71 -40 -16 -137 165 -101 188 24 15 33 3 42 -54z m-630 -86 l50 -98
-17 -40 c-15 -38 -15 -44 0 -82 9 -23 14 -43 12 -46 -3 -2 -28 3 -57 12 l-52
17 0 168 c0 92 3 168 8 167 4 0 29 -44 56 -98z"/>
<path d="M4700 2917 c0 -15 95 -23 130 -12 42 13 17 25 -55 25 -56 0 -75 -3
-75 -13z"/>
<path d="M6350 2913 c0 -10 -31 -13 -120 -13 l-120 0 82 -109 c46 -60 93 -114
104 -119 19 -9 22 -7 28 20 3 17 6 41 6 54 0 14 8 25 20 29 16 5 18 12 12 38
-3 18 -6 45 -7 62 0 28 2 29 45 29 53 -1 53 10 1 -152 -110 -339 -273 -673
-456 -939 -26 -37 -56 -78 -67 -89 l-19 -22 -42 21 c-148 71 -417 163 -636
218 -72 18 -131 35 -131 38 0 3 47 57 104 119 93 102 108 124 144 210 39 94
68 240 45 231 -5 -2 -52 -21 -105 -42 l-97 -38 -17 -52 c-29 -91 -93 -245
-134 -327 l-40 -80 46 -11 c29 -8 43 -16 40 -24 -3 -9 45 -25 160 -54 261 -67
644 -205 644 -233 0 -29 -207 -257 -332 -365 -179 -157 -367 -277 -551 -354
-130 -54 -127 -56 -128 44 0 45 -4 91 -9 102 -6 12 -9 -50 -9 -164 1 -193 7
-228 43 -236 48 -10 177 -11 268 -3 296 26 719 235 1053 519 201 171 481 487
598 676 138 221 271 530 337 782 24 89 25 120 6 166 -23 54 -67 75 -158 75
-101 0 -101 -15 -1 -18 83 -2 116 -16 141 -63 39 -73 -45 -362 -194 -664 -77
-157 -187 -333 -293 -470 -57 -73 -259 -305 -266 -305 -1 0 -50 35 -107 78
-57 42 -159 108 -226 146 l-121 69 32 44 c229 321 399 668 507 1033 l38 125
111 3 c147 4 146 22 -1 23 -62 0 -139 1 -171 2 -40 1 -57 -2 -57 -10z m-367
-1299 c105 -58 245 -151 307 -202 l34 -29 -58 -54 c-170 -156 -323 -268 -501
-369 -207 -117 -408 -197 -570 -225 -92 -16 -298 -23 -332 -12 -24 9 -37 62
-31 131 3 39 4 40 58 57 274 82 595 307 845 590 57 64 111 129 120 143 10 14
19 26 22 26 2 0 50 -25 106 -56z"/>
<path d="M5590 2913 c0 -5 113 -8 250 -8 138 0 250 3 250 8 0 4 -112 7 -250 7
-137 0 -250 -3 -250 -7z"/>
<path d="M2950 2885 c0 -9 16 -57 35 -106 19 -50 35 -104 35 -119 0 -16 10
-41 23 -57 13 -15 49 -64 81 -109 l57 -80 62 -13 c34 -7 70 -20 79 -28 14 -13
27 -14 67 -6 61 12 92 1 161 -59 37 -32 61 -44 92 -48 40 -5 45 -8 73 -62 27
-52 32 -57 72 -63 24 -3 47 -3 53 0 6 4 10 143 10 386 l0 379 -450 0 c-398 0
-450 -2 -450 -15z m830 -225 c0 -5 9 -10 20 -10 13 0 20 -7 20 -19 0 -28 -27
-33 -45 -8 -17 25 -20 47 -5 47 6 0 10 -4 10 -10z m-350 -187 c0 -21 -4 -44
-8 -51 -11 -16 -46 -3 -49 18 -1 8 -5 27 -9 43 -6 26 -5 27 30 27 35 0 36 -1
36 -37z"/>
<path d="M3880 2515 c0 -328 2 -385 14 -385 117 0 625 -57 854 -96 79 -13 150
-24 158 -24 21 0 111 191 169 361 l23 67 -44 18 c-46 19 -50 24 -34 40 16 16
2 42 -35 67 -18 12 -78 66 -133 119 -81 77 -103 105 -113 140 -24 84 9 78
-451 78 l-408 0 0 -385z m926 -432 c-5 -13 -9 -13 -22 -2 -28 23 -36 47 -23
71 11 21 12 21 31 -16 11 -21 17 -45 14 -53z"/>
<path d="M4870 2881 c0 -11 15 -28 34 -41 44 -26 126 -136 126 -167 0 -13 11
-46 25 -73 20 -40 30 -50 50 -50 21 0 27 8 40 53 8 28 24 97 35 152 11 55 22
110 25 123 l5 22 -170 0 c-161 0 -170 -1 -170 -19z"/>
<path d="M5213 2748 c-17 -84 -30 -154 -29 -155 0 -1 24 8 51 20 75 32 175
106 175 129 0 13 16 27 55 44 49 23 105 79 105 106 0 5 -74 8 -163 8 l-164 0
-30 -152z"/>
<path d="M6720 2887 c0 -30 32 -114 53 -139 l23 -28 36 30 c45 37 77 112 58
135 -17 20 -170 22 -170 2z"/>
<path d="M6460 2710 c-13 -24 -41 -113 -36 -117 1 -2 17 -6 34 -9 29 -6 33 -4
47 29 21 50 19 70 -9 96 l-24 23 -12 -22z"/>
<path d="M5136 2538 c-26 -64 -28 -78 -12 -78 9 0 19 16 26 41 6 22 14 47 17
55 11 30 -19 12 -31 -18z"/>
<path d="M3736 2075 c-17 -26 -16 -27 43 -102 l61 -76 0 102 0 101 -44 0 c-36
0 -47 -5 -60 -25z"/>
<path d="M4865 1843 c-37 -65 -117 -194 -177 -288 -59 -93 -109 -174 -109
-179 0 -5 23 -18 51 -29 60 -22 152 -108 170 -159 l12 -33 45 41 45 41 -26 51
c-14 28 -26 53 -26 55 0 2 43 34 96 72 53 37 98 74 101 82 12 30 -15 145 -40
172 -24 25 -47 103 -47 159 0 15 13 47 30 72 27 40 28 46 12 52 -9 4 -29 7
-43 7 -23 1 -34 -13 -94 -116z m-36 -250 c6 -38 14 -78 17 -91 5 -17 3 -21 -9
-16 -39 14 -79 138 -54 163 23 23 34 9 46 -56z"/>
<path d="M5390 1626 c0 -9 -12 -22 -27 -30 -16 -8 -41 -31 -57 -51 -15 -20
-41 -41 -57 -47 -40 -14 -59 -71 -33 -99 15 -17 16 -24 6 -40 -7 -10 -18 -28
-24 -39 -11 -18 -9 -23 17 -45 26 -21 37 -24 75 -19 25 3 50 11 56 17 17 19
71 178 77 226 3 24 11 47 17 51 6 4 10 24 8 46 -3 34 -6 39 -30 42 -20 2 -28
-1 -28 -12z"/>
</g>
</svg>
